<mxfile host="app.diagrams.net" agent="Mozilla/5.0 (Windows NT 10.0; Win64; x64) AppleWebKit/537.36 (KHTML, like Gecko) Chrome/135.0.0.0 Safari/537.36" version="26.2.13">
  <diagram id="prtHgNgQTEPvFCAcTncT" name="測具管理流程 泳道圖">
    <mxGraphModel dx="1037" dy="419" grid="0" gridSize="10" guides="1" tooltips="1" connect="1" arrows="1" fold="1" page="1" pageScale="1" pageWidth="827" pageHeight="1169" background="#E6E6E6" math="0" shadow="0">
      <root>
        <mxCell id="0" />
        <mxCell id="1" parent="0" />
        <mxCell id="dNxyNK7c78bLwvsdeMH5-19" value="" style="swimlane;html=1;childLayout=stackLayout;resizeParent=1;resizeParentMax=0;horizontal=0;startSize=20;horizontalStack=0;fillColor=#ffe6cc;strokeColor=#d79b00;" parent="1" vertex="1">
          <mxGeometry x="50" y="70" width="700" height="360" as="geometry" />
        </mxCell>
        <mxCell id="dNxyNK7c78bLwvsdeMH5-21" value="" style="swimlane;html=1;startSize=20;horizontal=0;fillColor=#f8cecc;strokeColor=default;" parent="dNxyNK7c78bLwvsdeMH5-19" vertex="1">
          <mxGeometry x="20" width="680" height="120" as="geometry" />
        </mxCell>
        <mxCell id="L2ft9QLMv21xo7cT4s58-15" value="虹堡" style="text;html=1;align=center;verticalAlign=middle;whiteSpace=wrap;rounded=0;fillColor=#f8cecc;strokeColor=#b85450;" vertex="1" parent="dNxyNK7c78bLwvsdeMH5-21">
          <mxGeometry width="20" height="120" as="geometry" />
        </mxCell>
        <mxCell id="L2ft9QLMv21xo7cT4s58-51" value="建料/BOM" style="rounded=0;whiteSpace=wrap;html=1;fontFamily=Helvetica;fontSize=12;align=center;fillColor=#f8cecc;strokeColor=#b85450;" vertex="1" parent="dNxyNK7c78bLwvsdeMH5-21">
          <mxGeometry x="372" y="30" width="80" height="60" as="geometry" />
        </mxCell>
        <mxCell id="dNxyNK7c78bLwvsdeMH5-26" value="管理工具開發" style="rounded=0;whiteSpace=wrap;html=1;fontFamily=Helvetica;fontSize=12;align=center;fillColor=#f8cecc;strokeColor=#b85450;" parent="dNxyNK7c78bLwvsdeMH5-21" vertex="1">
          <mxGeometry x="187" y="30" width="80" height="60" as="geometry" />
        </mxCell>
        <mxCell id="L2ft9QLMv21xo7cT4s58-48" style="edgeStyle=orthogonalEdgeStyle;rounded=0;orthogonalLoop=1;jettySize=auto;html=1;entryX=0;entryY=0.5;entryDx=0;entryDy=0;" edge="1" parent="dNxyNK7c78bLwvsdeMH5-21" source="dNxyNK7c78bLwvsdeMH5-26" target="L2ft9QLMv21xo7cT4s58-51">
          <mxGeometry relative="1" as="geometry">
            <mxPoint x="240" y="59.999999999999886" as="targetPoint" />
          </mxGeometry>
        </mxCell>
        <mxCell id="L2ft9QLMv21xo7cT4s58-18" value="Lane 3" style="swimlane;html=1;startSize=20;horizontal=0;" vertex="1" parent="dNxyNK7c78bLwvsdeMH5-19">
          <mxGeometry x="20" y="120" width="680" height="120" as="geometry">
            <mxRectangle x="20" y="240" width="430" height="30" as="alternateBounds" />
          </mxGeometry>
        </mxCell>
        <mxCell id="L2ft9QLMv21xo7cT4s58-22" value="上齊" style="text;html=1;align=center;verticalAlign=middle;whiteSpace=wrap;rounded=0;fillColor=#d5e8d4;strokeColor=#82b366;" vertex="1" parent="L2ft9QLMv21xo7cT4s58-18">
          <mxGeometry width="20" height="120" as="geometry" />
        </mxCell>
        <mxCell id="5UaB6JQAGh2B4dXYci5Y-14" value="流&lt;br&gt;&lt;br&gt;&lt;br&gt;&lt;br&gt;&lt;br&gt;程" style="text;html=1;align=center;verticalAlign=middle;whiteSpace=wrap;rounded=0;" vertex="1" parent="L2ft9QLMv21xo7cT4s58-18">
          <mxGeometry x="-40" y="45" width="60" height="30" as="geometry" />
        </mxCell>
        <mxCell id="dNxyNK7c78bLwvsdeMH5-23" value="開始" style="ellipse;whiteSpace=wrap;html=1;fillColor=#fff2cc;strokeColor=#d6b656;" parent="L2ft9QLMv21xo7cT4s58-18" vertex="1">
          <mxGeometry x="50" y="-90" width="60" height="60" as="geometry" />
        </mxCell>
        <mxCell id="L2ft9QLMv21xo7cT4s58-50" style="edgeStyle=orthogonalEdgeStyle;rounded=0;orthogonalLoop=1;jettySize=auto;html=1;entryX=0;entryY=0.5;entryDx=0;entryDy=0;" edge="1" parent="L2ft9QLMv21xo7cT4s58-18" target="dNxyNK7c78bLwvsdeMH5-34">
          <mxGeometry relative="1" as="geometry">
            <mxPoint x="320" y="-59.999999999999886" as="sourcePoint" />
          </mxGeometry>
        </mxCell>
        <mxCell id="5UaB6JQAGh2B4dXYci5Y-32" style="edgeStyle=orthogonalEdgeStyle;rounded=0;orthogonalLoop=1;jettySize=auto;html=1;exitX=0;exitY=0.5;exitDx=0;exitDy=0;entryX=1;entryY=0.5;entryDx=0;entryDy=0;" edge="1" parent="L2ft9QLMv21xo7cT4s58-18" source="5UaB6JQAGh2B4dXYci5Y-9" target="5UaB6JQAGh2B4dXYci5Y-23">
          <mxGeometry relative="1" as="geometry" />
        </mxCell>
        <mxCell id="5UaB6JQAGh2B4dXYci5Y-9" value="生產" style="rounded=0;whiteSpace=wrap;html=1;fontFamily=Helvetica;fontSize=12;align=center;fillColor=#d5e8d4;strokeColor=#82b366;" vertex="1" parent="L2ft9QLMv21xo7cT4s58-18">
          <mxGeometry x="237" y="30" width="80" height="60" as="geometry" />
        </mxCell>
        <mxCell id="5UaB6JQAGh2B4dXYci5Y-3" value="入庫/收發" style="rounded=0;whiteSpace=wrap;html=1;fontFamily=Helvetica;fontSize=12;align=center;fillColor=#d5e8d4;strokeColor=#82b366;" vertex="1" parent="L2ft9QLMv21xo7cT4s58-18">
          <mxGeometry x="351" y="30" width="80" height="60" as="geometry" />
        </mxCell>
        <mxCell id="5UaB6JQAGh2B4dXYci5Y-10" style="edgeStyle=orthogonalEdgeStyle;rounded=0;orthogonalLoop=1;jettySize=auto;html=1;" edge="1" parent="L2ft9QLMv21xo7cT4s58-18" source="5UaB6JQAGh2B4dXYci5Y-3" target="5UaB6JQAGh2B4dXYci5Y-9">
          <mxGeometry relative="1" as="geometry" />
        </mxCell>
        <mxCell id="5UaB6JQAGh2B4dXYci5Y-31" style="edgeStyle=orthogonalEdgeStyle;rounded=0;orthogonalLoop=1;jettySize=auto;html=1;exitX=0;exitY=0.5;exitDx=0;exitDy=0;entryX=1;entryY=0.5;entryDx=0;entryDy=0;" edge="1" parent="L2ft9QLMv21xo7cT4s58-18" source="5UaB6JQAGh2B4dXYci5Y-23" target="5UaB6JQAGh2B4dXYci5Y-24">
          <mxGeometry relative="1" as="geometry" />
        </mxCell>
        <mxCell id="5UaB6JQAGh2B4dXYci5Y-33" style="edgeStyle=orthogonalEdgeStyle;rounded=0;orthogonalLoop=1;jettySize=auto;html=1;exitX=0.5;exitY=0;exitDx=0;exitDy=0;entryX=0.5;entryY=0;entryDx=0;entryDy=0;" edge="1" parent="L2ft9QLMv21xo7cT4s58-18" source="5UaB6JQAGh2B4dXYci5Y-23" target="5UaB6JQAGh2B4dXYci5Y-9">
          <mxGeometry relative="1" as="geometry">
            <Array as="points">
              <mxPoint x="180" y="10" />
              <mxPoint x="277" y="10" />
            </Array>
          </mxGeometry>
        </mxCell>
        <mxCell id="5UaB6JQAGh2B4dXYci5Y-23" value="測具異常" style="rhombus;whiteSpace=wrap;html=1;fillColor=#d5e8d4;strokeColor=#82b366;" vertex="1" parent="L2ft9QLMv21xo7cT4s58-18">
          <mxGeometry x="140" y="20" width="80" height="80" as="geometry" />
        </mxCell>
        <mxCell id="5UaB6JQAGh2B4dXYci5Y-27" value="正常" style="text;html=1;align=center;verticalAlign=middle;whiteSpace=wrap;rounded=0;" vertex="1" parent="L2ft9QLMv21xo7cT4s58-18">
          <mxGeometry x="190" y="10" width="60" height="30" as="geometry" />
        </mxCell>
        <mxCell id="5UaB6JQAGh2B4dXYci5Y-30" value="異常" style="text;html=1;align=center;verticalAlign=middle;whiteSpace=wrap;rounded=0;" vertex="1" parent="L2ft9QLMv21xo7cT4s58-18">
          <mxGeometry x="110" y="80" width="60" height="30" as="geometry" />
        </mxCell>
        <mxCell id="5UaB6JQAGh2B4dXYci5Y-6" style="edgeStyle=orthogonalEdgeStyle;rounded=0;orthogonalLoop=1;jettySize=auto;html=1;entryX=0.5;entryY=0;entryDx=0;entryDy=0;" edge="1" parent="L2ft9QLMv21xo7cT4s58-18" source="5UaB6JQAGh2B4dXYci5Y-4" target="L2ft9QLMv21xo7cT4s58-53">
          <mxGeometry relative="1" as="geometry" />
        </mxCell>
        <mxCell id="5UaB6JQAGh2B4dXYci5Y-17" style="edgeStyle=orthogonalEdgeStyle;rounded=0;orthogonalLoop=1;jettySize=auto;html=1;" edge="1" parent="L2ft9QLMv21xo7cT4s58-18" source="5UaB6JQAGh2B4dXYci5Y-2" target="5UaB6JQAGh2B4dXYci5Y-19">
          <mxGeometry relative="1" as="geometry">
            <mxPoint x="434" y="180" as="targetPoint" />
            <Array as="points">
              <mxPoint x="500" y="180" />
            </Array>
          </mxGeometry>
        </mxCell>
        <mxCell id="5UaB6JQAGh2B4dXYci5Y-2" value="請購" style="rounded=0;whiteSpace=wrap;html=1;fontFamily=Helvetica;fontSize=12;align=center;fillColor=#d5e8d4;strokeColor=#82b366;" vertex="1" parent="L2ft9QLMv21xo7cT4s58-18">
          <mxGeometry x="460" y="30" width="80" height="60" as="geometry" />
        </mxCell>
        <mxCell id="5UaB6JQAGh2B4dXYci5Y-7" style="edgeStyle=orthogonalEdgeStyle;rounded=0;orthogonalLoop=1;jettySize=auto;html=1;entryX=1;entryY=0.5;entryDx=0;entryDy=0;" edge="1" parent="L2ft9QLMv21xo7cT4s58-18" source="L2ft9QLMv21xo7cT4s58-53" target="5UaB6JQAGh2B4dXYci5Y-2">
          <mxGeometry relative="1" as="geometry" />
        </mxCell>
        <mxCell id="5UaB6JQAGh2B4dXYci5Y-19" value="採購" style="rounded=0;whiteSpace=wrap;html=1;fontFamily=Helvetica;fontSize=12;align=center;fillColor=#fff2cc;strokeColor=#d6b656;" vertex="1" parent="L2ft9QLMv21xo7cT4s58-18">
          <mxGeometry x="351" y="150" width="80" height="60" as="geometry" />
        </mxCell>
        <mxCell id="5UaB6JQAGh2B4dXYci5Y-34" value="結束" style="ellipse;whiteSpace=wrap;html=1;fillColor=#fff2cc;strokeColor=#d6b656;" vertex="1" parent="L2ft9QLMv21xo7cT4s58-18">
          <mxGeometry x="50" y="150" width="60" height="60" as="geometry" />
        </mxCell>
        <mxCell id="5UaB6JQAGh2B4dXYci5Y-20" style="edgeStyle=orthogonalEdgeStyle;rounded=0;orthogonalLoop=1;jettySize=auto;html=1;entryX=0.5;entryY=1;entryDx=0;entryDy=0;" edge="1" parent="L2ft9QLMv21xo7cT4s58-18" source="5UaB6JQAGh2B4dXYci5Y-19" target="5UaB6JQAGh2B4dXYci5Y-3">
          <mxGeometry relative="1" as="geometry" />
        </mxCell>
        <mxCell id="5UaB6JQAGh2B4dXYci5Y-35" style="edgeStyle=orthogonalEdgeStyle;rounded=0;orthogonalLoop=1;jettySize=auto;html=1;entryX=0.5;entryY=0;entryDx=0;entryDy=0;" edge="1" parent="L2ft9QLMv21xo7cT4s58-18" source="5UaB6JQAGh2B4dXYci5Y-24" target="5UaB6JQAGh2B4dXYci5Y-34">
          <mxGeometry relative="1" as="geometry" />
        </mxCell>
        <mxCell id="5UaB6JQAGh2B4dXYci5Y-4" value="生產改善" style="rounded=0;whiteSpace=wrap;html=1;fontFamily=Helvetica;fontSize=12;align=center;fillColor=#f8cecc;strokeColor=#b85450;" vertex="1" parent="L2ft9QLMv21xo7cT4s58-18">
          <mxGeometry x="570" y="-90" width="80" height="60" as="geometry" />
        </mxCell>
        <mxCell id="L2ft9QLMv21xo7cT4s58-53" value="生產需求" style="rounded=0;whiteSpace=wrap;html=1;fontFamily=Helvetica;fontSize=12;align=center;fillColor=#d5e8d4;strokeColor=#82b366;" vertex="1" parent="L2ft9QLMv21xo7cT4s58-18">
          <mxGeometry x="570" y="30" width="80" height="60" as="geometry" />
        </mxCell>
        <mxCell id="5UaB6JQAGh2B4dXYci5Y-24" value="入NG/待報廢" style="rounded=0;whiteSpace=wrap;html=1;fontFamily=Helvetica;fontSize=12;align=center;fillColor=#d5e8d4;strokeColor=#82b366;" vertex="1" parent="L2ft9QLMv21xo7cT4s58-18">
          <mxGeometry x="40" y="30" width="80" height="60" as="geometry" />
        </mxCell>
        <mxCell id="dNxyNK7c78bLwvsdeMH5-22" value="Lane 3" style="swimlane;html=1;startSize=20;horizontal=0;" parent="dNxyNK7c78bLwvsdeMH5-19" vertex="1">
          <mxGeometry x="20" y="240" width="680" height="120" as="geometry">
            <mxRectangle x="20" y="240" width="430" height="30" as="alternateBounds" />
          </mxGeometry>
        </mxCell>
        <mxCell id="L2ft9QLMv21xo7cT4s58-17" value="採購" style="text;html=1;align=center;verticalAlign=middle;whiteSpace=wrap;rounded=0;fillColor=#fff2cc;strokeColor=#d6b656;" vertex="1" parent="dNxyNK7c78bLwvsdeMH5-22">
          <mxGeometry width="20" height="120" as="geometry" />
        </mxCell>
        <mxCell id="5UaB6JQAGh2B4dXYci5Y-5" style="edgeStyle=orthogonalEdgeStyle;rounded=0;orthogonalLoop=1;jettySize=auto;html=1;entryX=0;entryY=0.5;entryDx=0;entryDy=0;" edge="1" parent="dNxyNK7c78bLwvsdeMH5-19" source="L2ft9QLMv21xo7cT4s58-51" target="5UaB6JQAGh2B4dXYci5Y-4">
          <mxGeometry relative="1" as="geometry" />
        </mxCell>
        <mxCell id="fLrVmn8kOf0REo97dsK3-1" style="edgeStyle=orthogonalEdgeStyle;rounded=0;orthogonalLoop=1;jettySize=auto;html=1;" edge="1" parent="dNxyNK7c78bLwvsdeMH5-19" source="dNxyNK7c78bLwvsdeMH5-23" target="dNxyNK7c78bLwvsdeMH5-26">
          <mxGeometry relative="1" as="geometry" />
        </mxCell>
      </root>
    </mxGraphModel>
  </diagram>
</mxfile>
